<svg xmlns="http://www.w3.org/2000/svg" xmlns:xlink="http://www.w3.org/1999/xlink" version="1.1" width="256" height="256" viewBox="0 0 256 256" xml:space="preserve">

<defs>
</defs>
<g style="stroke: none; stroke-width: 0; stroke-dasharray: none; stroke-linecap: butt; stroke-linejoin: miter; stroke-miterlimit: 10; fill: none; fill-rule: nonzero; opacity: 1;" transform="translate(1.4065934065934016 1.4065934065934016) scale(2.81 2.81)" >
	<path d="M 77.1 90 H 12.9 c -4.994 0 -9.043 -4.049 -9.043 -9.043 V 16.756 c 0 -4.994 4.049 -9.043 9.043 -9.043 H 77.1 c 4.994 0 9.043 4.049 9.043 9.043 v 64.201 C 86.144 85.951 82.095 90 77.1 90 z" style="stroke: none; stroke-width: 1; stroke-dasharray: none; stroke-linecap: butt; stroke-linejoin: miter; stroke-miterlimit: 10; fill: rgb(238,234,241); fill-rule: nonzero; opacity: 1;" transform=" matrix(1 0 0 1 0 0) " stroke-linecap="round" />
	<path d="M 86.144 24.542 H 3.856 v -7.786 c 0 -4.994 4.049 -9.043 9.043 -9.043 H 77.1 c 4.994 0 9.043 4.049 9.043 9.043 V 24.542 z" style="stroke: none; stroke-width: 1; stroke-dasharray: none; stroke-linecap: butt; stroke-linejoin: miter; stroke-miterlimit: 10; fill: rgb(254,85,120); fill-rule: nonzero; opacity: 1;" transform=" matrix(1 0 0 1 0 0) " stroke-linecap="round" />
	<path d="M 24.479 16.127 h -0.867 c -2.471 0 -4.475 -2.003 -4.475 -4.475 V 4.475 C 19.138 2.003 21.141 0 23.613 0 h 0.867 c 2.471 0 4.475 2.003 4.475 4.475 v 7.178 C 28.954 14.124 26.951 16.127 24.479 16.127 z" style="stroke: none; stroke-width: 1; stroke-dasharray: none; stroke-linecap: butt; stroke-linejoin: miter; stroke-miterlimit: 10; fill: rgb(238,234,241); fill-rule: nonzero; opacity: 1;" transform=" matrix(1 0 0 1 0 0) " stroke-linecap="round" />
	<path d="M 66.387 16.127 h -0.867 c -2.471 0 -4.475 -2.003 -4.475 -4.475 V 4.475 C 61.046 2.003 63.049 0 65.521 0 h 0.867 c 2.471 0 4.475 2.003 4.475 4.475 v 7.178 C 70.862 14.124 68.859 16.127 66.387 16.127 z" style="stroke: none; stroke-width: 1; stroke-dasharray: none; stroke-linecap: butt; stroke-linejoin: miter; stroke-miterlimit: 10; fill: rgb(238,234,241); fill-rule: nonzero; opacity: 1;" transform=" matrix(1 0 0 1 0 0) " stroke-linecap="round" />
	<path d="M 46.104 76.079 c -0.61 0.61 -1.598 0.61 -2.207 0 L 27.244 59.426 c -2.563 -2.562 -3.783 -6.11 -3.307 -9.789 c 0.257 -1.984 1.04 -3.882 2.258 -5.469 c 2.333 -3.039 5.847 -4.703 9.603 -4.601 c 3.055 0.083 5.937 1.44 8.098 3.6 l 0 0 c 0.61 0.61 1.598 0.61 2.207 0 l 0.026 -0.026 c 2.131 -2.131 4.97 -3.468 7.982 -3.572 c 3.263 -0.113 6.349 1.105 8.644 3.401 l 0 0 c 2.198 2.198 3.408 5.12 3.408 8.228 s -1.21 6.03 -3.408 8.228 L 46.104 76.079 z" style="stroke: none; stroke-width: 1; stroke-dasharray: none; stroke-linecap: butt; stroke-linejoin: miter; stroke-miterlimit: 10; fill: rgb(254,85,120); fill-rule: nonzero; opacity: 1;" transform=" matrix(1 0 0 1 0 0) " stroke-linecap="round" />
</g>
</svg>