<?xml version="1.0" encoding="iso-8859-1"?>
<!-- Uploaded to: SVG Repo, www.svgrepo.com, Generator: SVG Repo Mixer Tools -->
<!DOCTYPE svg PUBLIC "-//W3C//DTD SVG 1.1//EN" "http://www.w3.org/Graphics/SVG/1.1/DTD/svg11.dtd">
<svg height="800px" width="800px" version="1.1" id="Capa_1" xmlns="http://www.w3.org/2000/svg" xmlns:xlink="http://www.w3.org/1999/xlink" 
	 viewBox="0 0 334.332 334.332" xml:space="preserve">
<g>
	<g>
		<path style="fill:#FFBBD2;" d="M167.167,15C104.714,15,53.905,65.811,53.905,128.266c0,25.648,20.354,67.061,58.857,119.758
			c22.053,30.184,44.344,56.139,54.404,67.551c10.061-11.412,32.352-37.367,54.404-67.551
			c38.504-52.697,58.855-94.109,58.855-119.758C280.427,65.811,229.62,15,167.167,15z M230.233,165.197
			c-11.779,17.752-31.842,34.014-59.631,48.332c-1.078,0.557-2.258,0.834-3.436,0.834c-1.18,0-2.357-0.277-3.436-0.834
			c-27.791-14.32-47.855-30.582-59.635-48.334c-13.094-19.73-12.805-36.396-10.258-46.9c4.902-20.219,22.826-34.893,42.619-34.893
			c11.635,0,22.266,4.881,30.709,13.934c8.441-9.053,19.072-13.934,30.707-13.934c19.791,0,37.713,14.674,42.615,34.893
			C243.038,128.801,243.325,145.465,230.233,165.197z"/>
		<path style="fill:#3CBCC6;" d="M197.874,83.402c-11.635,0-22.266,4.881-30.707,13.934c-8.443-9.053-19.074-13.934-30.709-13.934
			c-19.793,0-37.717,14.674-42.619,34.893c-2.547,10.504-2.836,27.17,10.258,46.9c11.779,17.752,31.844,34.014,59.635,48.334
			c1.078,0.557,2.256,0.834,3.436,0.834c1.178,0,2.357-0.277,3.436-0.834c27.789-14.318,47.852-30.58,59.631-48.332
			c13.092-19.732,12.805-36.396,10.256-46.902C235.587,98.076,217.665,83.402,197.874,83.402z M108.417,121.83
			c3.291-13.574,15.084-23.428,28.041-23.428c9.467,0,18.127,5.402,24.387,15.213c1.377,2.158,3.762,3.465,6.322,3.465
			c2.561,0,4.945-1.307,6.322-3.465c6.26-9.811,14.918-15.213,24.385-15.213c12.955,0,24.746,9.854,28.039,23.428
			c6.092,25.125-15.816,53.58-58.746,76.561C124.235,175.408,102.323,146.953,108.417,121.83z"/>
		<path style="fill:#3CBCC6;" d="M167.167,0C96.444,0,38.905,57.539,38.905,128.266c0,68.816,117.721,198.158,122.731,203.631
			c1.422,1.551,3.428,2.436,5.531,2.436c2.104,0,4.111-0.885,5.531-2.436c5.012-5.473,122.729-134.814,122.729-203.631
			C295.427,57.539,237.89,0,167.167,0z M280.427,128.266c0,25.648-20.352,67.061-58.855,119.758
			c-22.053,30.184-44.344,56.139-54.404,67.551c-10.061-11.412-32.352-37.367-54.404-67.551
			c-38.504-52.697-58.857-94.109-58.857-119.758C53.905,65.811,104.714,15,167.167,15C229.62,15,280.427,65.811,280.427,128.266z"/>
	</g>
</g>
</svg>