<?xml version="1.0" encoding="UTF-8" standalone="no"?>
<!DOCTYPE svg PUBLIC "-//W3C//DTD SVG 1.1//EN" "http://www.w3.org/Graphics/SVG/1.1/DTD/svg11.dtd">
<svg width="100%" height="100%" viewBox="0 0 300 74" version="1.1" xmlns="http://www.w3.org/2000/svg" xmlns:xlink="http://www.w3.org/1999/xlink" xml:space="preserve" xmlns:serif="http://www.serif.com/" style="fill-rule:evenodd;clip-rule:evenodd;stroke-linejoin:round;stroke-miterlimit:2;">
    <g transform="matrix(2.64359,0,0,2.60668,-57.1835,-408.988)">
        <path d="M63.922,165.99C62.283,169.376 61.179,172.44 63.29,175.79C65.716,173.547 66.002,169.697 63.922,165.99ZM88.046,175.556C90.562,171.853 89.878,168.157 89.281,164.218C85.973,167.221 85.451,171.771 88.046,175.556ZM75.805,168.503C73.655,172.261 72.481,176.237 72.807,180.569C72.868,181.372 73.096,182.17 73.319,182.95C73.424,183.315 73.586,183.773 74.091,183.778C74.564,183.784 74.744,183.355 74.97,183.031C75.109,182.832 75.231,182.61 75.314,182.382C76.989,177.816 76.827,173.186 75.805,168.503ZM135.113,167.297C126.405,166.622 118.091,164.451 109.858,161.913C106.713,160.943 103.543,160.125 100.217,160.049C97.457,159.986 94.839,160.471 92.32,161.625C91.186,162.145 90.677,162.692 91.088,164.063C91.749,166.273 91.909,168.581 91.82,170.897C91.762,172.401 91.428,173.833 90.688,175.141C90.136,176.115 89.337,176.862 88.125,176.74C86.983,176.625 86.145,175.982 85.723,174.879C84.117,170.673 84.666,166.816 87.649,163.388C88.317,162.62 88.863,162.015 88.36,160.812C87.143,157.899 85.741,157.355 83.036,159.003C81.03,160.225 79.561,161.981 78.151,163.816C77.489,164.678 77.772,165.506 77.962,166.383C78.711,169.849 79.213,173.339 78.827,176.896C78.578,179.193 78.133,181.449 76.9,183.452C76.242,184.521 75.462,185.521 73.978,185.304C72.522,185.09 72.021,183.956 71.633,182.746C70.744,179.973 71.188,177.209 71.764,174.466C72.307,171.878 73.311,169.45 74.547,167.118C75.045,166.178 75.602,165.296 75.097,164.114C74.421,162.533 73.99,160.83 72.59,159.669C72.016,159.193 71.39,159.301 70.729,159.521C69.454,159.945 68.379,160.69 67.364,161.53C65.383,163.171 65.405,163.214 66.473,165.562C67.543,167.919 68.14,170.363 67.654,172.981C67.455,174.05 67.096,175.046 66.446,175.915C64.834,178.072 62.566,177.871 61.393,175.463C60.525,173.682 60.551,171.805 60.944,169.92C61.282,168.302 61.86,166.754 62.712,165.342C63.289,164.384 63.056,163.714 62.371,162.943C60.292,160.604 57.683,159.435 54.605,159.154C50.452,158.775 46.419,159.523 42.399,160.395C37.171,161.529 32.124,163.237 27.178,165.263C25.811,165.823 24.427,166.346 22.968,166.622C22.508,166.709 22.022,166.842 21.631,166.426C21.721,166.245 21.757,166.019 21.86,165.983C29.046,163.446 36.03,160.286 43.586,158.886C47.626,158.138 51.651,157.323 55.805,158.016C58.628,158.486 61.239,159.408 63.312,161.418C64.266,162.344 64.9,162.259 65.722,161.347C66.607,160.363 67.701,159.625 68.878,159.016C71.614,157.599 73.685,158.098 75.526,160.595C75.999,161.237 76.232,162.061 76.939,162.551C77.743,162.294 78.038,161.559 78.514,161.031C79.679,159.738 80.964,158.604 82.493,157.76C85.281,156.221 87.51,156.745 89.29,159.355C90.396,160.977 90.401,160.991 92.247,160.238C97.05,158.279 101.908,158.664 106.756,159.966C111.829,161.328 116.875,162.788 121.935,164.195C125.265,165.121 128.673,165.646 132.089,166.128C133.193,166.284 134.337,166.359 135.113,167.297Z" style="fill:#C99969;fill-rule:nonzero;"/>
    </g>
</svg>
